<svg xmlns="http://www.w3.org/2000/svg" viewBox="0 0 512 512" fill="none">
  <title>concept_02_ds_monogram</title>
  <rect width="512" height="512" rx="112" fill="#6C5CE7"/>
  <g fill="#FFFFFF">
    <!-- D -->
    <path d="M 132 148 H 176 C 248 148 288 188 288 256 C 288 324 248 364 176 364 H 132 V 148 Z M 176 196 C 216 196 240 220 240 256 C 240 292 216 316 176 316 H 176 V 196 H 176 Z"/>
    <!-- S -->
    <path d="M 308 172 C 356 172 388 196 388 232 C 388 256 372 272 340 280 L 320 284 C 304 288 296 296 296 308 C 296 324 312 336 336 336 C 360 336 376 324 384 308 L 420 328 C 404 364 372 384 332 384 C 280 384 248 356 248 316 C 248 288 264 268 296 260 L 316 256 C 332 252 340 244 340 232 C 340 216 324 204 300 204 C 276 204 260 216 252 232 L 216 212 C 232 180 264 172 308 172 Z"/>
    <!-- Subtle play accent -->
    <path d="M 360 128 L 392 148 L 360 168 V 128 Z" opacity="0.55"/>
  </g>
</svg>
